<svg width="335" height="334" xmlns="http://www.w3.org/2000/svg" xmlns:xlink="http://www.w3.org/1999/xlink" xml:space="preserve" overflow="hidden"><g transform="translate(-2236 -559)"><g><path d="M2239 561 2569 561 2569 891 2239 891Z" fill="#004551" fill-rule="evenodd" fill-opacity="1"/><path d="M2365.33 658.6 2365.33 722.233 2449.56 722.233 2449.56 658.6ZM2333.51 618.001 2461.98 618.001C2466.53 618.001 2468.04 618.304 2469.25 619.516L2494.1 644.665C2495.31 645.877 2495.62 647.089 2495.62 651.632L2495.62 726.473C2495.62 747.682 2481.07 762.832 2459.26 762.832L2365.33 762.832 2365.33 828.281C2365.33 835.552 2361.08 839.188 2353.81 839.188L2330.48 839.188C2323.21 839.188 2319.27 835.552 2319.27 828.281L2319.27 632.24C2319.27 622.849 2324.12 618.001 2333.51 618.001Z" stroke="#000000" stroke-width="11" stroke-linecap="butt" stroke-linejoin="round" stroke-miterlimit="10" stroke-opacity="1" fill="#FFFFFF" fill-rule="evenodd" fill-opacity="1"/><text fill="#000000" fill-opacity="0" font-family="Arial,Arial_MSFontService,sans-serif" font-size="221.187" direction="ltr" writing-mode="lr-tb" x="2319.27" y="811.539">P</text></g></g></svg>